<svg xmlns="http://www.w3.org/2000/svg" width="512" height="512" viewBox="0 0 512 512" version="1.1">
	<path d="M 290 16.302 C 290 17.201, 287.302 23.253, 284.004 29.752 C 275.499 46.510, 267.858 55.676, 249.748 70.846 C 248.156 72.180, 247.422 71.762, 241.693 66.261 C 225.828 51.027, 207.104 44.310, 187.760 46.913 C 180.393 47.904, 177.941 48.565, 179.083 49.250 C 179.313 49.387, 182.197 50.850, 185.493 52.500 C 194.569 57.043, 199.479 62.276, 201.442 69.500 C 202.339 72.800, 204.182 77.872, 205.537 80.772 C 206.891 83.672, 208 86.199, 208 86.387 C 208 86.576, 200.012 86.972, 190.250 87.267 C 168.708 87.918, 161.294 89.614, 145.500 97.502 C 120.659 109.908, 98.037 130.214, 88.128 149 C 83.341 158.076, 83.173 160.193, 87.692 154.500 C 95.895 144.165, 108.005 134.639, 117.412 131.119 C 125.471 128.103, 132.276 127.703, 146.163 129.428 C 164.720 131.732, 172.629 131.509, 181.824 128.425 C 190.058 125.663, 194.990 123.065, 199.037 119.358 L 201.573 117.035 201.537 133.767 C 201.498 151.548, 202.354 157.077, 206.686 167 C 209.332 173.063, 215.104 183, 215.979 183 C 216.285 183, 217.314 180.030, 218.266 176.400 C 220.376 168.356, 226.163 155.819, 232.961 144.564 C 239.938 133.014, 242.685 126.516, 243.483 119.674 C 244.055 114.776, 244.428 113.954, 245.831 114.510 C 256.894 118.893, 278.977 121.195, 289.318 119.041 C 296.666 117.512, 310.779 110.439, 318.180 104.578 C 328.885 96.101, 337.393 83.889, 342.076 70.279 L 343.875 65.050 335.008 72.775 C 319.698 86.114, 309.804 90.910, 297.478 90.967 C 291.437 90.995, 277.958 88.291, 276.406 86.740 C 276.129 86.462, 277.894 83.370, 280.329 79.868 C 286.513 70.972, 289.815 64.043, 292.065 55.244 C 294.337 46.363, 294.567 32.810, 292.618 22.738 C 291.359 16.235, 290 12.893, 290 16.302 M 161 55.749 C 161 59.425, 165.553 63.571, 172.216 65.964 C 175.672 67.205, 178.928 68.621, 179.450 69.111 C 180.605 70.192, 184.061 70.248, 185.690 69.213 C 187.374 68.142, 181.759 64.497, 172.823 60.861 C 168.797 59.223, 164.490 56.930, 163.252 55.767 L 161 53.651 161 55.749 M 341.653 97.322 C 336.631 104.343, 327.744 113.073, 320.759 117.844 C 313.965 122.487, 300.569 128.676, 293 130.671 C 285.308 132.698, 269.555 132.760, 260.520 130.798 L 254.539 129.500 251.201 136.475 C 249.365 140.311, 245.617 147.167, 242.873 151.710 C 235.864 163.314, 231.258 173.689, 228.889 183.208 C 226.293 193.636, 224.816 196.419, 221.047 197.980 C 214.994 200.488, 208.442 195.436, 201.126 182.622 C 193.512 169.286, 189 154.794, 189 143.676 L 189 139.269 182.417 141.094 C 172.001 143.982, 165.527 144.305, 152.542 142.585 C 145.964 141.713, 136.924 141, 132.451 141 C 121.531 141, 114.716 144.338, 104.091 154.890 C 94.779 164.137, 89.973 171.296, 81.040 189.227 C 46.721 258.114, 54.837 340.540, 102.109 403.220 C 110.298 414.078, 130.224 433.855, 141.335 442.154 C 200.811 486.576, 278.359 495.912, 346.091 466.805 C 370.296 456.403, 390.389 442.711, 409.564 423.553 C 427.839 405.296, 438.599 390.246, 449.642 367.500 C 464.294 337.321, 470.936 305.662, 469.676 272 C 467.978 226.628, 452.923 186.115, 424.706 150.988 C 405.699 127.327, 376.005 104.107, 350.786 93.186 L 346.072 91.145 341.653 97.322 M 361 130.706 C 358.173 131.740, 355.104 135.252, 354.458 138.192 C 353.367 143.161, 355.679 146.531, 364.856 153.349 C 375.594 161.325, 390.660 176.792, 398.580 187.967 C 405.837 198.209, 409.398 200.684, 414.469 199.010 C 418.718 197.608, 422 193.688, 422 190.014 C 422 179.484, 390.901 144.871, 370 132.139 C 366.554 130.041, 363.954 129.626, 361 130.706 M 283.933 242.976 C 257.845 259.995, 234.129 276.156, 231.231 278.888 C 227.789 282.133, 224.843 286.220, 222.731 290.678 C 219.795 296.877, 219.500 298.368, 219.500 307 C 219.500 315.538, 219.812 317.158, 222.582 323.003 C 228.282 335.030, 239.278 343.225, 253.578 346.105 C 258.786 347.154, 260.629 347.085, 266.438 345.626 C 280.004 342.218, 288.723 335.625, 294.840 324.149 C 296.631 320.789, 303.045 302.619, 309.094 283.770 C 315.142 264.922, 322.801 241.243, 326.113 231.150 C 329.424 221.058, 331.961 212.628, 331.750 212.416 C 331.538 212.205, 310.021 225.957, 283.933 242.976 M 253.764 286.996 C 248.184 288.676, 244.145 292.067, 241.571 297.234 C 238.173 304.053, 238.232 309.302, 241.784 316.101 C 246.534 325.193, 257.540 329.308, 266.782 325.447 C 271.712 323.388, 275.835 319.402, 278.104 314.500 C 285.109 299.371, 269.867 282.147, 253.764 286.996 M 45.079 326.583 C 45.127 327.748, 45.364 327.985, 45.683 327.188 C 45.972 326.466, 45.936 325.603, 45.604 325.271 C 45.272 324.939, 45.036 325.529, 45.079 326.583 M 483.079 326.583 C 483.127 327.748, 483.364 327.985, 483.683 327.188 C 483.972 326.466, 483.936 325.603, 483.604 325.271 C 483.272 324.939, 483.036 325.529, 483.079 326.583 M 46.079 331.583 C 46.127 332.748, 46.364 332.985, 46.683 332.188 C 46.972 331.466, 46.936 330.603, 46.604 330.271 C 46.272 329.939, 46.036 330.529, 46.079 331.583 M 482.079 331.583 C 482.127 332.748, 482.364 332.985, 482.683 332.188 C 482.972 331.466, 482.936 330.603, 482.604 330.271 C 482.272 329.939, 482.036 330.529, 482.079 331.583 M 47.040 334.577 C 46.951 336.966, 53.102 357.060, 56.474 365.396 C 64.146 384.364, 75.489 404.284, 87.849 420.500 C 94.637 429.405, 114.304 449.248, 124 456.973 C 164.036 488.874, 213.646 506.286, 264.500 506.286 C 315.354 506.286, 364.964 488.874, 405 456.973 C 414.696 449.248, 434.363 429.405, 441.151 420.500 C 458.263 398.050, 472.031 371.024, 479.062 346.077 C 483.302 331.034, 482.607 331.430, 477.440 347 C 469.733 370.225, 456.693 394.850, 442.109 413.720 C 374.397 501.333, 252.452 526.459, 155.557 472.764 C 106.672 445.674, 69.312 400.494, 51.560 347 C 49.096 339.575, 47.062 333.984, 47.040 334.577" stroke="none" fill="black" fill-rule="evenodd"/>
</svg>